<?xml version="1.0" standalone="no"?>
<!DOCTYPE svg PUBLIC "-//W3C//DTD SVG 20010904//EN"
 "http://www.w3.org/TR/2001/REC-SVG-20010904/DTD/svg10.dtd">
<svg version="1.0" xmlns="http://www.w3.org/2000/svg"
 width="480.000000pt" height="480.000000pt" viewBox="0 0 480.000000 480.000000"
 preserveAspectRatio="xMidYMid meet">
<metadata>
Created by potrace 1.14, written by Peter Selinger 2001-2017
</metadata>
<g transform="translate(0.000000,480.000000) scale(0.100000,-0.100000)"
fill="#000000" stroke="none">
<path d="M1978 4395 c-1 -1 -76 -6 -166 -9 -90 -4 -180 -9 -200 -11 -20 -2
-66 -6 -102 -9 -105 -9 -190 -18 -285 -32 -16 -2 -46 -6 -65 -8 -198 -25 -533
-98 -735 -160 -140 -42 -131 -32 -84 -101 23 -33 52 -74 64 -91 l23 -31 89 29
c174 58 535 141 703 162 361 47 472 57 740 71 97 5 788 5 860 0 30 -2 107 -6
170 -9 101 -5 173 -12 365 -32 83 -8 180 -22 285 -39 82 -13 96 -16 110 -20 8
-2 35 -7 60 -10 24 -4 47 -8 51 -10 3 -2 21 -7 40 -10 53 -9 286 -71 385 -103
l89 -28 62 90 c71 105 81 90 -82 138 -159 47 -301 82 -410 102 -16 3 -39 8
-50 10 -11 2 -65 11 -120 20 -55 10 -111 19 -125 21 -14 3 -50 7 -80 10 -30 3
-66 8 -80 10 -14 2 -56 7 -95 10 -38 4 -81 8 -95 10 -14 2 -77 7 -140 11 -63
3 -131 8 -150 10 -40 5 -1027 14 -1032 9z"/>
<path d="M1747 3994 c-1 -1 -62 -5 -135 -9 -74 -3 -143 -8 -155 -10 -12 -2
-53 -6 -92 -10 -74 -7 -104 -11 -170 -20 -22 -3 -56 -8 -75 -11 -19 -3 -46 -7
-60 -10 -14 -2 -38 -7 -55 -9 -167 -28 -475 -116 -475 -137 0 -5 30 -40 67
-77 99 -97 254 -195 389 -246 l62 -23 7 36 c31 165 218 249 598 267 83 4 107
3 108 -7 0 -7 2 -20 4 -28 1 -8 8 -42 14 -75 6 -33 13 -71 16 -85 3 -14 16
-86 30 -160 14 -74 27 -146 30 -160 3 -14 12 -61 20 -105 16 -90 16 -90 50
-270 55 -295 97 -522 101 -545 2 -14 7 -35 9 -48 3 -13 12 -60 20 -105 8 -45
17 -91 19 -102 10 -48 38 -201 40 -215 1 -8 6 -33 10 -55 7 -33 62 -328 79
-425 15 -82 28 -148 31 -165 5 -25 64 -341 70 -375 2 -14 16 -86 30 -160 14
-74 33 -175 42 -225 16 -89 34 -143 32 -100 0 11 2 31 5 45 7 32 54 282 73
385 7 44 16 91 19 105 3 14 9 50 15 80 6 30 12 66 15 80 3 14 9 50 15 80 11
60 17 92 25 130 2 14 7 41 10 60 3 19 8 42 10 50 2 8 7 31 10 50 3 19 8 46 10
60 3 14 7 36 10 50 3 14 7 36 10 50 8 40 17 93 20 116 2 12 8 45 14 75 16 77
71 367 77 409 3 19 16 91 29 160 14 69 27 141 30 160 3 19 8 42 10 50 2 8 7
31 10 50 6 37 40 224 50 275 3 17 8 44 11 60 3 17 30 158 59 315 30 157 56
296 58 310 3 14 13 66 22 117 l17 91 111 -4 c105 -3 156 -8 217 -19 14 -3 40
-7 58 -10 84 -14 196 -65 249 -114 38 -35 59 -73 68 -123 l7 -37 57 21 c70 27
165 77 256 137 71 47 205 170 205 189 0 6 -49 27 -109 46 -94 30 -135 42 -221
61 -8 2 -35 8 -60 13 -63 15 -92 19 -270 45 -109 17 -167 23 -285 32 -38 3
-95 8 -125 11 -30 3 -171 7 -312 9 l-257 4 -28 -32 c-15 -18 -66 -83 -113
-144 -47 -62 -87 -112 -90 -112 -3 0 -26 28 -52 62 -26 34 -76 98 -110 143
l-63 80 -213 0 c-117 0 -214 -1 -215 -2z"/>
</g>
</svg>
